<svg width="56" height="56" viewBox="0 0 56 56" fill="none" xmlns="http://www.w3.org/2000/svg">
<circle cx="28" cy="28" r="28" fill="#ECECEC"/>
<path d="M15.376 41.252C13.528 41.252 11.872 40.952 10.408 40.352C8.944 39.752 7.768 38.864 6.88 37.688C6.016 36.512 5.56 35.096 5.512 33.44H12.064C12.16 34.376 12.484 35.096 13.036 35.6C13.588 36.08 14.308 36.32 15.196 36.32C16.108 36.32 16.828 36.116 17.356 35.708C17.884 35.276 18.148 34.688 18.148 33.944C18.148 33.32 17.932 32.804 17.5 32.396C17.092 31.988 16.576 31.652 15.952 31.388C15.352 31.124 14.488 30.824 13.36 30.488C11.728 29.984 10.396 29.48 9.364 28.976C8.332 28.472 7.444 27.728 6.7 26.744C5.956 25.76 5.584 24.476 5.584 22.892C5.584 20.54 6.436 18.704 8.14 17.384C9.844 16.04 12.064 15.368 14.8 15.368C17.584 15.368 19.828 16.04 21.532 17.384C23.236 18.704 24.148 20.552 24.268 22.928H17.608C17.56 22.112 17.26 21.476 16.708 21.02C16.156 20.54 15.448 20.3 14.584 20.3C13.84 20.3 13.24 20.504 12.784 20.912C12.328 21.296 12.1 21.86 12.1 22.604C12.1 23.42 12.484 24.056 13.252 24.512C14.02 24.968 15.22 25.46 16.852 25.988C18.484 26.54 19.804 27.068 20.812 27.572C21.844 28.076 22.732 28.808 23.476 29.768C24.22 30.728 24.592 31.964 24.592 33.476C24.592 34.916 24.22 36.224 23.476 37.4C22.756 38.576 21.7 39.512 20.308 40.208C18.916 40.904 17.272 41.252 15.376 41.252Z" fill="#333333"/>
<path d="M43.8604 41L38.7124 33.26L34.1764 41H27.1924L35.2924 28.148L27.0124 15.728H34.1764L39.2524 23.36L43.7164 15.728H50.7004L42.6724 28.472L51.0244 41H43.8604Z" fill="#46B5D1"/>
</svg>
