<svg width="156" height="54" viewBox="0 0 156 54" fill="none" xmlns="http://www.w3.org/2000/svg">
<path d="M11.376 40.252C9.528 40.252 7.872 39.952 6.408 39.352C4.944 38.752 3.768 37.864 2.88 36.688C2.016 35.512 1.56 34.096 1.512 32.44H8.064C8.16 33.376 8.484 34.096 9.036 34.6C9.588 35.08 10.308 35.32 11.196 35.32C12.108 35.32 12.828 35.116 13.356 34.708C13.884 34.276 14.148 33.688 14.148 32.944C14.148 32.32 13.932 31.804 13.5 31.396C13.092 30.988 12.576 30.652 11.952 30.388C11.352 30.124 10.488 29.824 9.36 29.488C7.728 28.984 6.396 28.48 5.364 27.976C4.332 27.472 3.444 26.728 2.7 25.744C1.956 24.76 1.584 23.476 1.584 21.892C1.584 19.54 2.436 17.704 4.14 16.384C5.844 15.04 8.064 14.368 10.8 14.368C13.584 14.368 15.828 15.04 17.532 16.384C19.236 17.704 20.148 19.552 20.268 21.928H13.608C13.56 21.112 13.26 20.476 12.708 20.02C12.156 19.54 11.448 19.3 10.584 19.3C9.84 19.3 9.24 19.504 8.784 19.912C8.328 20.296 8.1 20.86 8.1 21.604C8.1 22.42 8.484 23.056 9.252 23.512C10.02 23.968 11.22 24.46 12.852 24.988C14.484 25.54 15.804 26.068 16.812 26.572C17.844 27.076 18.732 27.808 19.476 28.768C20.22 29.728 20.592 30.964 20.592 32.476C20.592 33.916 20.22 35.224 19.476 36.4C18.756 37.576 17.7 38.512 16.308 39.208C14.916 39.904 13.272 40.252 11.376 40.252ZM36.6564 40L30.5364 31.576V40H24.3804V13.36H30.5364V28.084L36.6204 19.912H44.2164L35.8644 29.992L44.2884 40H36.6564ZM49.7303 17.824C48.6503 17.824 47.7623 17.512 47.0663 16.888C46.3943 16.24 46.0583 15.448 46.0583 14.512C46.0583 13.552 46.3943 12.76 47.0663 12.136C47.7623 11.488 48.6503 11.164 49.7303 11.164C50.7863 11.164 51.6503 11.488 52.3223 12.136C53.0183 12.76 53.3663 13.552 53.3663 14.512C53.3663 15.448 53.0183 16.24 52.3223 16.888C51.6503 17.512 50.7863 17.824 49.7303 17.824ZM52.7903 19.912V40H46.6343V19.912H52.7903ZM63.4075 13.36V40H57.2515V13.36H63.4075ZM74.0247 13.36V40H67.8687V13.36H74.0247ZM97.4219 29.632C97.4219 30.208 97.3859 30.808 97.3139 31.432H83.3819C83.4779 32.68 83.8739 33.64 84.5699 34.312C85.2899 34.96 86.1659 35.284 87.1979 35.284C88.7339 35.284 89.8019 34.636 90.4019 33.34H96.9539C96.6179 34.66 96.0059 35.848 95.1179 36.904C94.2539 37.96 93.1619 38.788 91.8419 39.388C90.5219 39.988 89.0459 40.288 87.4139 40.288C85.4459 40.288 83.6939 39.868 82.1579 39.028C80.6219 38.188 79.4219 36.988 78.5579 35.428C77.6939 33.868 77.2619 32.044 77.2619 29.956C77.2619 27.868 77.6819 26.044 78.5219 24.484C79.3859 22.924 80.5859 21.724 82.1219 20.884C83.6579 20.044 85.4219 19.624 87.4139 19.624C89.3579 19.624 91.0859 20.032 92.5979 20.848C94.1099 21.664 95.2859 22.828 96.1259 24.34C96.9899 25.852 97.4219 27.616 97.4219 29.632ZM91.1219 28.012C91.1219 26.956 90.7619 26.116 90.0419 25.492C89.3219 24.868 88.4219 24.556 87.3419 24.556C86.3099 24.556 85.4339 24.856 84.7139 25.456C84.0179 26.056 83.5859 26.908 83.4179 28.012H91.1219ZM125.144 14.584H135.512V18.148H132.524L132.56 27.22H128.096L128.132 18.148H125.144V14.584ZM154.34 14.584V27.22H150.272L150.164 19.984L147.212 27.22H144.224L141.272 19.624V27.22H137.348V14.584H143.324L145.88 21.82L148.832 14.584H154.34Z" fill="#333333"/>
<path d="M116.15 40L111.002 32.26L106.466 40H99.4815L107.582 27.148L99.3015 14.728H106.466L111.542 22.36L116.006 14.728H122.99L114.962 27.472L123.314 40H116.15Z" fill="#46B5D1"/>
<path d="M53.5 15C53 17 51.5 17.8125 50 17.8125C47.5 17.8125 46 16.433 46 14.5C46 12.567 48.067 11 50 11C52.5 11.5 53.5 13.067 53.5 15Z" fill="#46B5D1"/>
</svg>
